<svg version="1.1" xmlns="http://www.w3.org/2000/svg" viewBox="-16.441177391287 -5.462523710389947 32.873781114423025 11.847752406188494" fill="none" stroke="black" stroke-width="0.6%" vector-effect="non-scaling-stroke">
    <path d="M 6.75623 -0.00717 L 7.18491 -0.05098 L 7.18491 -1.28273 L 6.75623 -1.23892 L 6.11285 -1.42137 L 6.11285 -0.18961 L 5.46946 -0.37206 L 5.46946 0.8597 L 7.39961 1.40703 L 7.82829 1.36322 L 7.82829 0.13147 L 7.18491 -0.05098" />
    <path d="M 6.75623 -0.00717 L 6.75623 -1.23892" />
    <path d="M 7.39961 0.17528 L 7.82829 0.13147" />
    <path d="M 7.39961 0.17528 L 6.75623 -0.00717" />
    <path d="M 9.43675 -1.0137 L 9.43675 -2.70367 L 9.43574 -2.73483 A 0.25 0.1268 84.16467 0 0 9.30807 -2.98651 L 4.41837 -4.37309 A 0.25 0.1268 84.16467 0 0 4.39295 -4.37544 A 0.25 0.1268 84.16467 0 0 4.28995 -4.17862 L 4.28969 -4.16323 L 4.28969 -2.47326 L 0.68675 -3.49495 L 0.68675 -0.53874 L 5.46946 0.8175" />
    <path d="M 13.03969 0.00799 L 9.43675 -1.0137 L 10.28554 -1.10045 L 10.28554 -2.79041 L 10.28453 -2.82158 A 0.25 0.1268 84.16467 0 0 10.15687 -3.07325 L 5.26716 -4.45984 A 0.25 0.1268 84.16467 0 0 5.24174 -4.46219" />
    <path d="M 13.03969 2.9642 L 13.03969 0.00799 L 13.88849 -0.07875 L 10.28554 -1.10045" />
    <path d="M 7.509 1.39585 L 13.03969 2.9642 L 13.88849 2.87746 L 13.88849 -0.07875" />
    <path d="M 7.18491 -1.28273 L 6.54153 -1.46518 L 6.11285 -1.42137" />
    <path d="M 6.11285 -0.35499 L 5.89815 -0.41587 L 5.46946 -0.37206" />
    <path d="M 7.39961 1.40703 L 7.39961 0.17528" />
    <path d="M 10.28554 -2.79041 L 9.43675 -2.70367" />
    <path d="M 10.28453 -2.82158 L 9.43574 -2.73483" />
    <path d="M 10.15687 -3.07325 L 9.30807 -2.98651" />
    <path d="M 0.68675 -0.86618 L -0.00857 -1.06336 L -4.22539 -0.6324" />
    <path d="M -15.11095 0.48009 L -15.44118 0.51384 L 0 4.89253 L 15.4326 3.31532 L 13.88849 2.87746" />
    <path d="M -15.11095 0.57937 L -0.18448 4.8121 L -0.18448 1.85589 L 0.66432 1.76915 L -4.22539 0.38256 L -4.22539 -1.3074 L -5.07418 -1.22066 L -5.0752 -1.25182 A 0.25 0.1268 84.16467 0 0 -5.20286 -1.5035 L -10.09256 -2.89008 A 0.25 0.1268 84.16467 0 0 -10.11798 -2.89243 L -9.26919 -2.97918" />
    <path d="M -0.18448 4.8121 L 0.66432 4.72535 L 0.66432 1.76915" />
    <path d="M 5.26716 -4.45984 L 4.41837 -4.37309" />
    <path d="M 0.68675 -3.49495 L 1.53554 -3.5817" />
    <path d="M 4.28969 -2.8007 L 1.53554 -3.5817" />
    <path d="M 15.4326 3.80803 L 15.4326 3.31532" />
    <path d="M -15.44118 1.00654 L -15.44118 0.51384" />
    <path d="M 0 5.38523 L 0 4.89253" />
    <path d="M -2.3966 4.70562 L 0 5.38523 L 15.4326 3.80803" />
    <path d="M -2.3966 4.70562 L -2.3966 4.73641 L -2.31678 4.72826" />
    <path d="M -2.3966 4.73641 L -2.38051 4.74097 L -2.30069 4.73282" />
    <path d="M -2.38051 5.03536 L -2.38051 4.74097" />
    <path d="M -2.76654 4.9259 L -2.38051 5.03536 L -1.53757 4.94922" />
    <path d="M -2.76654 4.9259 L -2.76654 4.63643 L -2.75303 4.64027 L -2.75303 4.60454" />
    <path d="M -12.69072 1.7865 L -2.75303 4.60454" />
    <path d="M -12.69072 1.7865 L -12.69072 1.81729 L -12.61089 1.80913" />
    <path d="M -12.69072 1.81729 L -12.67463 1.82185 L -12.59481 1.81369" />
    <path d="M -12.67463 2.11624 L -12.67463 1.82185" />
    <path d="M -13.06066 2.00677 L -12.67463 2.11624 L -11.83169 2.03009" />
    <path d="M -13.06066 2.00677 L -13.06066 1.71731 L -13.04715 1.72114 L -13.04715 1.68542" />
    <path d="M -15.44118 1.00654 L -13.04715 1.68542" />
    <path d="M -14.26215 -2.46358 L -15.11095 -2.37684 L -15.11095 0.57937" />
    <path d="M -5.07418 0.46931 L -5.07418 -1.22066" />
    <path d="M -10.11798 -2.89243 A 0.25 0.1268 84.16467 0 0 -10.22099 -2.69562 L -10.22124 -2.68022 L -10.22124 -0.99025 L -15.11095 -2.37684" />
    <path d="M -0.18448 1.85589 L -5.07418 0.46931 L -4.22539 0.38256" />
    <path d="M -4.22539 -1.3074 L -4.2264 -1.33857 L -5.0752 -1.25182" />
    <path d="M -4.2264 -1.33857 A 0.25 0.1268 84.16467 0 0 -4.35407 -1.59024 L -5.20286 -1.5035" />
    <path d="M -4.35407 -1.59024 L -9.24377 -2.97683 L -10.09256 -2.89008" />
    <path d="M -9.24377 -2.97683 A 0.25 0.1268 84.16467 0 0 -9.26919 -2.97918" />
    <path d="M -10.22124 -1.31769 L -14.26215 -2.46358" />
    <path d="M -13.04715 1.71593 L -13.06066 1.71731" />
    <path d="M -2.75303 4.63505 L -2.76654 4.63643" />
    <path d="M -11.62179 2.18053 A 0.04688 0.00798 180 0 0 -11.53472 2.17643" />
    <path d="M -11.62847 2.17643 A 0.04688 0.00798 180 0 0 -11.62179 2.18053" />
    <path d="M -1.32767 5.09965 A 0.04688 0.00798 180 0 0 -1.2406 5.09555" />
    <path d="M -1.33435 5.09555 A 0.04688 0.00798 180 0 0 -1.32767 5.09965" />
    <path d="M 4.39295 -4.37544 L 5.24174 -4.46219" />
    <path d="M -11.62847 2.08772 L -11.62847 2.17643" />
    <path d="M -11.53472 2.1143 L -11.53472 2.17643" />
    <path d="M -1.33435 5.00684 L -1.33435 5.09555" />
    <path d="M -1.2406 5.03343 L -1.2406 5.09555" />
</svg>