<svg version="1.1" xmlns="http://www.w3.org/2000/svg" viewBox="-16.43487368703736 -9.237430343398813 32.86974737407472 18.474860686797626" fill="none" stroke="black" stroke-width="0.6%" vector-effect="non-scaling-stroke">
    <path d="M -15.43487 -2.57963 L -15.43487 -3.06038 L 0 4.00943 L 15.43487 1.4643 L 11.62303 -0.28168" />
    <path d="M 0 4.49018 L 0 4.00943" />
    <path d="M -2.39562 3.39288 L 0 4.49018 L 15.43487 1.94505 L 15.43487 1.4643" />
    <path d="M -2.39562 3.39288 L -2.39562 3.42293 L -2.37954 3.4303 L -2.33131 3.42234" />
    <path d="M -2.37954 3.71754 L -2.37954 3.4303" />
    <path d="M -2.76541 3.5408 L -2.37954 3.71754 L -1.87019 3.63355" />
    <path d="M -2.76541 3.5408 L -2.76541 3.25836 L -2.75191 3.26454 L -2.75191 3.22969" />
    <path d="M -12.68554 -1.32032 L -2.75191 3.22969" />
    <path d="M -12.68554 -1.32032 L -12.68554 -1.29028 L -12.66946 -1.28291 L -12.62122 -1.29087" />
    <path d="M -12.66946 -0.99567 L -12.66946 -1.28291" />
    <path d="M -13.05533 -1.17241 L -12.66946 -0.99567 L -12.16011 -1.07965" />
    <path d="M -13.05533 -1.17241 L -13.05533 -1.45485 L -13.04182 -1.44866 L -13.04182 -1.48352" />
    <path d="M -15.43487 -2.57963 L -13.04182 -1.48352" />
    <path d="M 0 -5.60551 L -0.81062 -5.47185" />
    <path d="M -0.90437 -5.45639 L -2.95435 -5.11835" />
    <path d="M -3.0481 -5.1029 L -5.09808 -4.76486" />
    <path d="M -5.19183 -4.74941 L -7.24181 -4.41137" />
    <path d="M -7.33556 -4.39591 L -9.38555 -4.05788" />
    <path d="M -9.4793 -4.04242 L -11.52928 -3.70439" />
    <path d="M -11.62303 -3.68893 L -15.43487 -3.06038" />
    <path d="M 11.52928 -0.32462 L 9.4793 -1.2636" />
    <path d="M 9.38555 -1.30654 L 7.33556 -2.24552" />
    <path d="M 7.24181 -2.28846 L 1.33311 -4.99489" />
    <path d="M 1.23936 -5.03783 L 0 -5.60551" />
    <path d="M -11.61635 -2.08754 A 0.04688 0.01288 360 0 1 -11.62303 -2.09417" />
    <path d="M -11.52928 -2.09417 A 0.04688 0.01288 360 0 1 -11.61635 -2.08754" />
    <path d="M -9.47262 -2.44103 A 0.04688 0.01288 360 0 1 -9.4793 -2.44766" />
    <path d="M -9.38555 -2.44766 A 0.04688 0.01288 360 0 1 -9.47262 -2.44103" />
    <path d="M -7.32888 -2.79453 A 0.04688 0.01288 360 0 1 -7.33556 -2.80115" />
    <path d="M -7.24181 -2.80115 A 0.04688 0.01288 360 0 1 -7.32888 -2.79453" />
    <path d="M -1.32643 2.62566 A 0.04688 0.01288 360 0 1 -1.33311 2.61904" />
    <path d="M -1.23936 2.61904 A 0.04688 0.01288 360 0 1 -1.32643 2.62566" />
    <path d="M 0.8173 2.27217 A 0.04688 0.01288 360 0 1 0.81062 2.26554" />
    <path d="M 0.90437 2.26554 A 0.04688 0.01288 360 0 1 0.8173 2.27217" />
    <path d="M 2.96103 1.91868 A 0.04688 0.01288 360 0 1 2.95435 1.91205" />
    <path d="M 3.0481 1.91205 A 0.04688 0.01288 360 0 1 2.96103 1.91868" />
    <path d="M -5.18515 -3.14802 A 0.04688 0.01288 360 0 1 -5.19183 -3.15464" />
    <path d="M -5.09808 -3.15464 A 0.04688 0.01288 360 0 1 -5.18515 -3.14802" />
    <path d="M -3.04142 -3.50151 A 0.04688 0.01288 360 0 1 -3.0481 -3.50813" />
    <path d="M -2.95435 -3.50813 A 0.04688 0.01288 360 0 1 -3.04142 -3.50151" />
    <path d="M -0.89769 -3.855 A 0.04688 0.01288 360 0 1 -0.90437 -3.86163" />
    <path d="M -0.81062 -3.86163 A 0.04688 0.01288 360 0 1 -0.89769 -3.855" />
    <path d="M 1.24604 -4.20849 A 0.04688 0.01288 360 0 1 1.23936 -4.21512" />
    <path d="M 1.33311 -4.21512 A 0.04688 0.01288 360 0 1 1.24604 -4.20849" />
    <path d="M 5.10476 1.56519 A 0.04688 0.01288 360 0 1 5.09808 1.55856" />
    <path d="M 5.19183 1.55856 A 0.04688 0.01288 360 0 1 5.10476 1.56519" />
    <path d="M 7.24849 1.2117 A 0.04688 0.01288 360 0 1 7.24181 1.20507" />
    <path d="M 7.33556 1.20507 A 0.04688 0.01288 360 0 1 7.24849 1.2117" />
    <path d="M 9.39223 0.85821 A 0.04688 0.01288 360 0 1 9.38555 0.85158" />
    <path d="M 9.4793 0.85158 A 0.04688 0.01288 360 0 1 9.39223 0.85821" />
    <path d="M 11.53596 0.50472 A 0.04688 0.01288 360 0 1 11.52928 0.49809" />
    <path d="M 11.62303 0.49809 A 0.04688 0.01288 360 0 1 11.53596 0.50472" />
    <path d="M -11.61635 -6.09698 A 0.04688 0.01288 0 0 1 -11.62303 -6.1036 L -11.62303 -2.09417" />
    <path d="M -11.62303 -6.1036 A 0.04688 0.01288 0 0 1 -11.52928 -6.1036 L -11.52928 -2.09417" />
    <path d="M -11.52928 -6.1036 A 0.04688 0.01288 0 0 1 -11.61635 -6.09698" />
    <path d="M -9.47262 -6.45047 A 0.04688 0.01288 0 0 1 -9.4793 -6.45709 L -9.4793 -2.44766" />
    <path d="M -9.4793 -6.45709 A 0.04688 0.01288 0 0 1 -9.38555 -6.45709 L -9.38555 -2.44766" />
    <path d="M -9.38555 -6.45709 A 0.04688 0.01288 0 0 1 -9.47262 -6.45047" />
    <path d="M -7.32888 -6.80396 A 0.04688 0.01288 0 0 1 -7.33556 -6.81058 L -7.33556 -2.80115" />
    <path d="M -7.33556 -6.81058 A 0.04688 0.01288 0 0 1 -7.24181 -6.81058 L -7.24181 -2.80115" />
    <path d="M -7.24181 -6.81058 A 0.04688 0.01288 0 0 1 -7.32888 -6.80396" />
    <path d="M -1.32643 -1.38377 A 0.04688 0.01288 0 0 1 -1.33311 -1.3904 L -1.33311 2.61904" />
    <path d="M -1.33311 -1.3904 A 0.04688 0.01288 0 0 1 -1.23936 -1.3904 L -1.23936 2.61904" />
    <path d="M -1.23936 -1.3904 A 0.04688 0.01288 0 0 1 -1.32643 -1.38377" />
    <path d="M 0.8173 -1.73726 A 0.04688 0.01288 0 0 1 0.81062 -1.74389 L 0.81062 2.26554" />
    <path d="M 0.81062 -1.74389 A 0.04688 0.01288 0 0 1 0.90437 -1.74389 L 0.90437 2.26554" />
    <path d="M 0.90437 -1.74389 A 0.04688 0.01288 0 0 1 0.8173 -1.73726" />
    <path d="M 2.96103 -2.09075 A 0.04688 0.01288 0 0 1 2.95435 -2.09738 L 2.95435 1.91205" />
    <path d="M 2.95435 -2.09738 A 0.04688 0.01288 0 0 1 3.0481 -2.09738 L 3.0481 1.91205" />
    <path d="M 3.0481 -2.09738 A 0.04688 0.01288 0 0 1 2.96103 -2.09075" />
    <path d="M -5.18515 -7.15745 A 0.04688 0.01288 0 0 1 -5.19183 -7.16408 L -5.19183 -3.15464" />
    <path d="M -5.19183 -7.16408 A 0.04688 0.01288 0 0 1 -5.09808 -7.16408 L -5.09808 -3.15464" />
    <path d="M -5.09808 -7.16408 A 0.04688 0.01288 0 0 1 -5.18515 -7.15745" />
    <path d="M -3.04142 -7.51094 A 0.04688 0.01288 0 0 1 -3.0481 -7.51757 L -3.0481 -3.50813" />
    <path d="M -3.0481 -7.51757 A 0.04688 0.01288 0 0 1 -2.95435 -7.51757 L -2.95435 -3.50813" />
    <path d="M -2.95435 -7.51757 A 0.04688 0.01288 0 0 1 -3.04142 -7.51094" />
    <path d="M -0.89769 -7.86443 A 0.04688 0.01288 0 0 1 -0.90437 -7.87106 L -0.90437 -3.86163" />
    <path d="M -0.90437 -7.87106 A 0.04688 0.01288 0 0 1 -0.81062 -7.87106 L -0.81062 -3.86163" />
    <path d="M -0.81062 -7.87106 A 0.04688 0.01288 0 0 1 -0.89769 -7.86443" />
    <path d="M 1.24604 -8.21792 A 0.04688 0.01288 0 0 1 1.23936 -8.22455 L 1.23936 -4.21512" />
    <path d="M 1.23936 -8.22455 A 0.04688 0.01288 0 0 1 1.33311 -8.22455 L 1.33311 -4.21512" />
    <path d="M 1.33311 -8.22455 A 0.04688 0.01288 0 0 1 1.24604 -8.21792" />
    <path d="M 5.10476 -2.44424 A 0.04688 0.01288 0 0 1 5.09808 -2.45087 L 5.09808 1.55856" />
    <path d="M 5.09808 -2.45087 A 0.04688 0.01288 0 0 1 5.19183 -2.45087 L 5.19183 1.55856" />
    <path d="M 5.19183 -2.45087 A 0.04688 0.01288 0 0 1 5.10476 -2.44424" />
    <path d="M 7.24849 -2.79773 A 0.04688 0.01288 0 0 1 7.24181 -2.80436 L 7.24181 1.20507" />
    <path d="M 7.24181 -2.80436 A 0.04688 0.01288 0 0 1 7.33556 -2.80436 L 7.33556 1.20507" />
    <path d="M 7.33556 -2.80436 A 0.04688 0.01288 0 0 1 7.24849 -2.79773" />
    <path d="M 9.39223 -3.15122 A 0.04688 0.01288 0 0 1 9.38555 -3.15785 L 9.38555 0.85158" />
    <path d="M 9.38555 -3.15785 A 0.04688 0.01288 0 0 1 9.4793 -3.15785 L 9.4793 0.85158" />
    <path d="M 9.4793 -3.15785 A 0.04688 0.01288 0 0 1 9.39223 -3.15122" />
    <path d="M 11.53596 -3.50471 A 0.04688 0.01288 0 0 1 11.52928 -3.51134 L 11.52928 0.49809" />
    <path d="M 11.52928 -3.51134 A 0.04688 0.01288 0 0 1 11.62303 -3.51134 L 11.62303 0.49809" />
    <path d="M 11.62303 -3.51134 A 0.04688 0.01288 0 0 1 11.53596 -3.50471" />
    <path d="M -12.68554 -1.29028 L -12.6373 -1.29823" />
    <path d="M -13.04182 -1.45708 L -13.05533 -1.45485" />
    <path d="M -2.39562 3.42293 L -2.34739 3.41498" />
    <path d="M -2.75191 3.25613 L -2.76541 3.25836" />
    <path d="M -11.61635 3.51797 A 0.04688 0.01288 180 0 0 -11.52928 3.51134" />
    <path d="M -11.62303 3.51134 A 0.04688 0.01288 180 0 0 -11.61635 3.51797" />
    <path d="M -9.47262 3.16448 A 0.04688 0.01288 180 0 0 -9.38555 3.15785" />
    <path d="M -9.4793 3.15785 A 0.04688 0.01288 180 0 0 -9.47262 3.16448" />
    <path d="M -7.32888 2.81099 A 0.04688 0.01288 180 0 0 -7.24181 2.80436" />
    <path d="M -7.33556 2.80436 A 0.04688 0.01288 180 0 0 -7.32888 2.81099" />
    <path d="M -5.18515 2.4575 A 0.04688 0.01288 180 0 0 -5.09808 2.45087" />
    <path d="M -5.19183 2.45087 A 0.04688 0.01288 180 0 0 -5.18515 2.4575" />
    <path d="M -1.32643 8.23117 A 0.04688 0.01288 180 0 0 -1.23936 8.22455" />
    <path d="M -1.33311 8.22455 A 0.04688 0.01288 180 0 0 -1.32643 8.23117" />
    <path d="M 0.8173 7.87768 A 0.04688 0.01288 180 0 0 0.90437 7.87106" />
    <path d="M 0.81062 7.87106 A 0.04688 0.01288 180 0 0 0.8173 7.87768" />
    <path d="M 2.96103 7.52419 A 0.04688 0.01288 180 0 0 3.0481 7.51757" />
    <path d="M 2.95435 7.51757 A 0.04688 0.01288 180 0 0 2.96103 7.52419" />
    <path d="M 5.10476 7.1707 A 0.04688 0.01288 180 0 0 5.19183 7.16408" />
    <path d="M 5.09808 7.16408 A 0.04688 0.01288 180 0 0 5.10476 7.1707" />
    <path d="M 7.24849 6.81721 A 0.04688 0.01288 180 0 0 7.33556 6.81058" />
    <path d="M 7.24181 6.81058 A 0.04688 0.01288 180 0 0 7.24849 6.81721" />
    <path d="M 9.39223 6.46372 A 0.04688 0.01288 180 0 0 9.4793 6.45709" />
    <path d="M 9.38555 6.45709 A 0.04688 0.01288 180 0 0 9.39223 6.46372" />
    <path d="M 11.53596 6.11023 A 0.04688 0.01288 180 0 0 11.62303 6.1036" />
    <path d="M 11.52928 6.1036 A 0.04688 0.01288 180 0 0 11.53596 6.11023" />
    <path d="M -11.62303 -0.83365 L -11.62303 3.51134" />
    <path d="M -11.52928 -0.79071 L -11.52928 3.51134" />
    <path d="M -9.4793 0.14827 L -9.4793 3.15785" />
    <path d="M -9.38555 0.19121 L -9.38555 3.15785" />
    <path d="M -7.33556 1.13019 L -7.33556 2.80436" />
    <path d="M -7.24181 1.17313 L -7.24181 2.80436" />
    <path d="M -5.19183 2.1121 L -5.19183 2.45087" />
    <path d="M -5.09808 2.15505 L -5.09808 2.45087" />
    <path d="M -1.33311 3.87956 L -1.33311 8.22455" />
    <path d="M -1.23936 3.9225 L -1.23936 8.22455" />
    <path d="M 0.81062 4.35651 L 0.81062 7.87106" />
    <path d="M 0.90437 4.34105 L 0.90437 7.87106" />
    <path d="M 2.95435 4.00302 L 2.95435 7.51757" />
    <path d="M 3.0481 3.98756 L 3.0481 7.51757" />
    <path d="M 5.09808 3.64953 L 5.09808 7.16408" />
    <path d="M 5.19183 3.63407 L 5.19183 7.16408" />
    <path d="M 7.24181 3.29604 L 7.24181 6.81058" />
    <path d="M 7.33556 3.28058 L 7.33556 6.81058" />
    <path d="M 9.38555 2.94255 L 9.38555 6.45709" />
    <path d="M 9.4793 2.92709 L 9.4793 6.45709" />
    <path d="M 11.52928 2.58906 L 11.52928 6.1036" />
    <path d="M 11.62303 2.5736 L 11.62303 6.1036" />
</svg>