<svg version="1.1" xmlns="http://www.w3.org/2000/svg" viewBox="-16.43487368703736 -6.470606176424017 32.86974737407472 12.81529505465922" fill="none" stroke="black" stroke-width="0.6%" vector-effect="non-scaling-stroke">
    <path d="M -15.43487 -0.02344 L -13.04182 0.80884" />
    <path d="M -15.43487 -0.02344 L -15.43487 -0.51244 L -7.75088 2.16 L -7.75088 2.64899 L -7.68399 2.64062" />
    <path d="M -12.68554 0.93276 L -7.75088 2.64899" />
    <path d="M -12.68554 0.93276 L -12.68554 0.96332 L -12.66946 0.96891 L -12.60484 0.96082" />
    <path d="M -12.66946 1.26108 L -12.66946 0.96891" />
    <path d="M -13.05533 1.12688 L -12.66946 1.26108 L -11.98714 1.17565" />
    <path d="M -13.05533 1.12688 L -13.05533 0.8396 L -13.04182 0.84429 L -13.04182 0.80884" />
    <path d="M 0 -2.44496 L -0.10749 -2.4315" />
    <path d="M -1.60749 -2.2437 L -4.29682 -1.90698" />
    <path d="M -15.10474 -0.55377 L -15.43487 -0.51244" />
    <path d="M 0.69457 -1.80186 L 6.83508 0.33376 L 6.83508 -2.1112 L 6.90196 -2.08794 L 6.90196 0.35702 L -0.55929 1.29121" />
    <path d="M 0.69457 -2.2034 L 0 -2.44496" />
    <path d="M -7.75088 2.16 L -7.67799 2.15087 L -7.67799 -0.29409 L -7.61111 -0.27083 L -7.61111 2.17414 L -7.68399 2.18326 L 0 4.8557 L 15.43487 2.92317 L 13.89139 2.38636 L 13.89139 -0.5476 L 10.28992 -1.80016 L 10.28992 -3.47741 L 10.2889 -3.5084 A 0.25 0.12579 82.8634 0 0 10.16129 -3.76664 L 5.27358 -5.46655 A 0.25 0.12579 82.8634 0 0 5.24252 -5.47011" />
    <path d="M -15.10474 -0.43209 L -7.67799 2.15087" />
    <path d="M -0.62618 1.26795 L 6.83508 0.33376" />
    <path d="M -0.10749 -1.12082 A 0.75 0.15651 360 0 1 -1.60749 -1.12082" />
    <path d="M -12.68554 0.96332 L -12.62092 0.95523" />
    <path d="M -13.04182 0.8379 L -13.05533 0.8396" />
    <path d="M 15.43487 3.41216 L 15.43487 2.92317" />
    <path d="M 4.29604 -3.88479 L 1.54349 -4.8421" />
    <path d="M -10.18242 2.39776 A 0.75 0.15651 180 1 0 -8.68242 2.39776" />
    <path d="M 13.04247 -0.44131 L 9.441 -1.69387 L 9.441 -3.37112 L 9.43998 -3.40211 A 0.25 0.12579 82.8634 0 0 9.31237 -3.66035 L 10.16129 -3.76664" />
    <path d="M 13.04247 2.49264 L 13.04247 -0.44131 L 13.89139 -0.5476" />
    <path d="M 6.90196 0.35702 L 13.04247 2.49264 L 13.89139 2.38636" />
    <path d="M 0.69457 -4.73582 L 0.69457 -1.80186" />
    <path d="M 4.29604 -3.48325 L 0.69457 -4.73582 L 1.54349 -4.8421" />
    <path d="M 4.29604 -5.1605 L 4.29604 -3.48325" />
    <path d="M 4.29629 -5.17576 L 4.29604 -5.1605" />
    <path d="M 4.42466 -5.36026 A 0.25 0.12579 82.8634 0 0 4.3936 -5.36382 L 5.24252 -5.47011" />
    <path d="M 4.3936 -5.36382 A 0.25 0.12579 82.8634 0 0 4.29629 -5.17576" />
    <path d="M 9.31237 -3.66035 L 4.42466 -5.36026 L 5.27358 -5.46655" />
    <path d="M 0.66456 1.71686 L -4.22315 0.01695 L -4.22315 -1.6603 L -5.07207 -1.55401 L -5.07308 -1.585 A 0.25 0.12579 82.8634 0 0 -5.20069 -1.84324 L -4.35178 -1.94953 L -9.23949 -3.64943 A 0.25 0.12579 82.8634 0 0 -9.27055 -3.653" />
    <path d="M 0.66456 4.65081 L 0.66456 1.71686" />
    <path d="M -10.21703 -2.06768 L -14.25582 -3.47234" />
    <path d="M -4.22417 -1.69129 A 0.25 0.12579 82.8634 0 0 -4.35178 -1.94953" />
    <path d="M -4.22315 -1.6603 L -4.22417 -1.69129 L -5.07308 -1.585" />
    <path d="M -15.10474 -3.36605 L -14.25582 -3.47234" />
    <path d="M -15.10474 -3.36605 L -15.10474 -0.43209" />
    <path d="M -0.18436 1.82315 L -5.07207 0.12324 L -4.22315 0.01695" />
    <path d="M -0.18436 4.7571 L -0.18436 1.82315 L 0.66456 1.71686" />
    <path d="M -7.61111 2.17414 L -0.18436 4.7571 L 0.66456 4.65081" />
    <path d="M -10.21703 -1.66614 L -15.10474 -3.36605" />
    <path d="M -10.21703 -3.34338 L -10.21703 -1.66614" />
    <path d="M -10.21677 -3.35865 L -10.21703 -3.34338" />
    <path d="M -10.0884 -3.54315 A 0.25 0.12579 82.8634 0 0 -10.11946 -3.54671 L -9.27055 -3.653" />
    <path d="M -10.11946 -3.54671 A 0.25 0.12579 82.8634 0 0 -10.21677 -3.35865" />
    <path d="M -5.20069 -1.84324 L -10.0884 -3.54315 L -9.23949 -3.64943" />
    <path d="M -5.07207 0.12324 L -5.07207 -1.55401" />
    <path d="M -1.24336 -2.722 A 0.75 0.15651 360 0 1 -0.10749 -2.5878 L -0.10749 -1.12082" />
    <path d="M -0.10749 -2.5878 A 0.75 0.15651 360 0 1 -1.60749 -2.5878 L -1.60749 -1.12082" />
    <path d="M -1.60749 -2.5878 A 0.75 0.15651 360 0 1 -1.24336 -2.722" />
    <path d="M -7.68399 2.67225 L -7.68399 2.18326" />
    <path d="M -7.68399 2.67225 L -2.75191 4.38759" />
    <path d="M -2.75191 4.42305 L -2.75191 4.38759" />
    <path d="M -2.76541 4.41835 L -2.75191 4.42305" />
    <path d="M -2.75191 4.41666 L -2.76541 4.41835" />
    <path d="M -2.76541 4.70563 L -2.76541 4.41835" />
    <path d="M -2.76541 4.70563 L -2.37954 4.83984 L -2.37954 4.54766 L -2.31493 4.53957" />
    <path d="M -2.37954 4.83984 L -1.69722 4.75441" />
    <path d="M -2.39562 4.54207 L -2.33101 4.53398" />
    <path d="M -2.39562 4.54207 L -2.37954 4.54766" />
    <path d="M -2.39562 4.51151 L -2.39562 4.54207" />
    <path d="M 0 5.34469 L 15.43487 3.41216" />
    <path d="M -2.39562 4.51151 L 0 5.34469 L 0 4.8557" />
    <path d="M 9.441 -1.69387 L 10.28992 -1.80016" />
    <path d="M 10.28992 -3.47741 L 9.441 -3.37112" />
    <path d="M 10.2889 -3.5084 L 9.43998 -3.40211" />
    <path d="M -10.18242 1.80332 L -10.18242 2.39776" />
    <path d="M -8.68242 2.32501 L -8.68242 2.39776" />
</svg>