<svg version="1.1" xmlns="http://www.w3.org/2000/svg" viewBox="-16.434873678966845 -9.237430325985263 32.869747357933676 18.474860651970523" fill="none" stroke="black" stroke-width="0.6%" vector-effect="non-scaling-stroke">
    <path d="M -15.43487 -2.57483 L -15.43487 -3.05557 L 0 4.01424 L 15.43487 1.46911 L 11.62303 -0.27688" />
    <path d="M 0 4.49499 L 0 4.01424" />
    <path d="M -2.37954 3.40506 L 0 4.49499 L 15.43487 1.94985 L 15.43487 1.46911" />
    <path d="M -2.37954 3.71754 L -2.37954 3.40506" />
    <path d="M -2.76541 3.5408 L -2.37954 3.71754 L -1.87791 3.63483" />
    <path d="M -2.76541 3.5408 L -2.76541 3.22831" />
    <path d="M -12.66946 -1.30815 L -2.76541 3.22831" />
    <path d="M -12.66946 -0.99567 L -12.66946 -1.30815" />
    <path d="M -13.05533 -1.17241 L -12.66946 -0.99567 L -12.16782 -1.07838" />
    <path d="M -13.05533 -1.17241 L -13.05533 -1.4849" />
    <path d="M -15.43487 -2.57483 L -13.05533 -1.4849" />
    <path d="M 0 -5.6007 L -0.81062 -5.46704" />
    <path d="M -0.90437 -5.45158 L -2.95435 -5.11355" />
    <path d="M -3.0481 -5.09809 L -5.09808 -4.76006" />
    <path d="M -5.19183 -4.7446 L -7.24181 -4.40657" />
    <path d="M -7.33556 -4.39111 L -9.38555 -4.05308" />
    <path d="M -9.4793 -4.03762 L -11.52928 -3.69958" />
    <path d="M -11.62303 -3.68413 L -15.43487 -3.05557" />
    <path d="M 11.52928 -0.31982 L 9.4793 -1.25879" />
    <path d="M 9.38555 -1.30173 L 7.33556 -2.24071" />
    <path d="M 7.24181 -2.28365 L 1.33311 -4.99008" />
    <path d="M 1.23936 -5.03302 L 0 -5.6007" />
    <path d="M -11.61635 -2.08274 A 0.04688 0.01288 360 0 1 -11.62303 -2.08936" />
    <path d="M -11.52928 -2.08936 A 0.04688 0.01288 360 0 1 -11.61635 -2.08274" />
    <path d="M -9.47262 -2.43623 A 0.04688 0.01288 360 0 1 -9.4793 -2.44286" />
    <path d="M -9.38555 -2.44286 A 0.04688 0.01288 360 0 1 -9.47262 -2.43623" />
    <path d="M -7.32888 -2.78972 A 0.04688 0.01288 360 0 1 -7.33556 -2.79635" />
    <path d="M -7.24181 -2.79635 A 0.04688 0.01288 360 0 1 -7.32888 -2.78972" />
    <path d="M -1.32643 2.63047 A 0.04688 0.01288 360 0 1 -1.33311 2.62384" />
    <path d="M -1.23936 2.62384 A 0.04688 0.01288 360 0 1 -1.32643 2.63047" />
    <path d="M 0.8173 2.27698 A 0.04688 0.01288 360 0 1 0.81062 2.27035" />
    <path d="M 0.90437 2.27035 A 0.04688 0.01288 360 0 1 0.8173 2.27698" />
    <path d="M 2.96103 1.92349 A 0.04688 0.01288 360 0 1 2.95435 1.91686" />
    <path d="M 3.0481 1.91686 A 0.04688 0.01288 360 0 1 2.96103 1.92349" />
    <path d="M -5.18515 -3.14321 A 0.04688 0.01288 360 0 1 -5.19183 -3.14984" />
    <path d="M -5.09808 -3.14984 A 0.04688 0.01288 360 0 1 -5.18515 -3.14321" />
    <path d="M -3.04142 -3.4967 A 0.04688 0.01288 360 0 1 -3.0481 -3.50333" />
    <path d="M -2.95435 -3.50333 A 0.04688 0.01288 360 0 1 -3.04142 -3.4967" />
    <path d="M -0.89769 -3.85019 A 0.04688 0.01288 360 0 1 -0.90437 -3.85682" />
    <path d="M -0.81062 -3.85682 A 0.04688 0.01288 360 0 1 -0.89769 -3.85019" />
    <path d="M 1.24604 -4.20368 A 0.04688 0.01288 360 0 1 1.23936 -4.21031" />
    <path d="M 1.33311 -4.21031 A 0.04688 0.01288 360 0 1 1.24604 -4.20368" />
    <path d="M 5.10476 1.57 A 0.04688 0.01288 360 0 1 5.09808 1.56337" />
    <path d="M 5.19183 1.56337 A 0.04688 0.01288 360 0 1 5.10476 1.57" />
    <path d="M 7.24849 1.21651 A 0.04688 0.01288 360 0 1 7.24181 1.20988" />
    <path d="M 7.33556 1.20988 A 0.04688 0.01288 360 0 1 7.24849 1.21651" />
    <path d="M 9.39223 0.86302 A 0.04688 0.01288 360 0 1 9.38555 0.85639" />
    <path d="M 9.4793 0.85639 A 0.04688 0.01288 360 0 1 9.39223 0.86302" />
    <path d="M 11.53596 0.50953 A 0.04688 0.01288 360 0 1 11.52928 0.5029" />
    <path d="M 11.62303 0.5029 A 0.04688 0.01288 360 0 1 11.53596 0.50953" />
    <path d="M -11.61635 -6.09698 A 0.04688 0.01288 360 0 1 -11.62303 -6.1036 L -11.62303 -2.08936" />
    <path d="M -11.62303 -6.1036 A 0.04688 0.01288 360 0 1 -11.52928 -6.1036 L -11.52928 -2.08936" />
    <path d="M -11.52928 -6.1036 A 0.04688 0.01288 360 0 1 -11.61635 -6.09698" />
    <path d="M -9.47262 -6.45047 A 0.04688 0.01288 360 0 1 -9.4793 -6.45709 L -9.4793 -2.44286" />
    <path d="M -9.4793 -6.45709 A 0.04688 0.01288 360 0 1 -9.38555 -6.45709 L -9.38555 -2.44286" />
    <path d="M -9.38555 -6.45709 A 0.04688 0.01288 360 0 1 -9.47262 -6.45047" />
    <path d="M -7.32888 -6.80396 A 0.04688 0.01288 360 0 1 -7.33556 -6.81058 L -7.33556 -2.79635" />
    <path d="M -7.33556 -6.81058 A 0.04688 0.01288 360 0 1 -7.24181 -6.81058 L -7.24181 -2.79635" />
    <path d="M -7.24181 -6.81058 A 0.04688 0.01288 360 0 1 -7.32888 -6.80396" />
    <path d="M -1.32643 -1.38377 A 0.04688 0.01288 360 0 1 -1.33311 -1.3904 L -1.33311 2.62384" />
    <path d="M -1.33311 -1.3904 A 0.04688 0.01288 360 0 1 -1.23936 -1.3904 L -1.23936 2.62384" />
    <path d="M -1.23936 -1.3904 A 0.04688 0.01288 360 0 1 -1.32643 -1.38377" />
    <path d="M 0.8173 -1.73726 A 0.04688 0.01288 360 0 1 0.81062 -1.74389 L 0.81062 2.27035" />
    <path d="M 0.81062 -1.74389 A 0.04688 0.01288 360 0 1 0.90437 -1.74389 L 0.90437 2.27035" />
    <path d="M 0.90437 -1.74389 A 0.04688 0.01288 360 0 1 0.8173 -1.73726" />
    <path d="M 2.96103 -2.09075 A 0.04688 0.01288 360 0 1 2.95435 -2.09738 L 2.95435 1.91686" />
    <path d="M 2.95435 -2.09738 A 0.04688 0.01288 360 0 1 3.0481 -2.09738 L 3.0481 1.91686" />
    <path d="M 3.0481 -2.09738 A 0.04688 0.01288 360 0 1 2.96103 -2.09075" />
    <path d="M -5.18515 -7.15745 A 0.04688 0.01288 360 0 1 -5.19183 -7.16408 L -5.19183 -3.14984" />
    <path d="M -5.19183 -7.16408 A 0.04688 0.01288 360 0 1 -5.09808 -7.16408 L -5.09808 -3.14984" />
    <path d="M -5.09808 -7.16408 A 0.04688 0.01288 360 0 1 -5.18515 -7.15745" />
    <path d="M -3.04142 -7.51094 A 0.04688 0.01288 360 0 1 -3.0481 -7.51757 L -3.0481 -3.50333" />
    <path d="M -3.0481 -7.51757 A 0.04688 0.01288 360 0 1 -2.95435 -7.51757 L -2.95435 -3.50333" />
    <path d="M -2.95435 -7.51757 A 0.04688 0.01288 360 0 1 -3.04142 -7.51094" />
    <path d="M -0.89769 -7.86443 A 0.04688 0.01288 360 0 1 -0.90437 -7.87106 L -0.90437 -3.85682" />
    <path d="M -0.90437 -7.87106 A 0.04688 0.01288 360 0 1 -0.81062 -7.87106 L -0.81062 -3.85682" />
    <path d="M -0.81062 -7.87106 A 0.04688 0.01288 360 0 1 -0.89769 -7.86443" />
    <path d="M 1.24604 -8.21792 A 0.04688 0.01288 360 0 1 1.23936 -8.22455 L 1.23936 -4.21031" />
    <path d="M 1.23936 -8.22455 A 0.04688 0.01288 360 0 1 1.33311 -8.22455 L 1.33311 -4.21031" />
    <path d="M 1.33311 -8.22455 A 0.04688 0.01288 360 0 1 1.24604 -8.21792" />
    <path d="M 5.10476 -2.44424 A 0.04688 0.01288 360 0 1 5.09808 -2.45087 L 5.09808 1.56337" />
    <path d="M 5.09808 -2.45087 A 0.04688 0.01288 360 0 1 5.19183 -2.45087 L 5.19183 1.56337" />
    <path d="M 5.19183 -2.45087 A 0.04688 0.01288 360 0 1 5.10476 -2.44424" />
    <path d="M 7.24849 -2.79773 A 0.04688 0.01288 360 0 1 7.24181 -2.80436 L 7.24181 1.20988" />
    <path d="M 7.24181 -2.80436 A 0.04688 0.01288 360 0 1 7.33556 -2.80436 L 7.33556 1.20988" />
    <path d="M 7.33556 -2.80436 A 0.04688 0.01288 360 0 1 7.24849 -2.79773" />
    <path d="M 9.39223 -3.15122 A 0.04688 0.01288 360 0 1 9.38555 -3.15785 L 9.38555 0.85639" />
    <path d="M 9.38555 -3.15785 A 0.04688 0.01288 360 0 1 9.4793 -3.15785 L 9.4793 0.85639" />
    <path d="M 9.4793 -3.15785 A 0.04688 0.01288 360 0 1 9.39223 -3.15122" />
    <path d="M 11.53596 -3.50471 A 0.04688 0.01288 360 0 1 11.52928 -3.51134 L 11.52928 0.5029" />
    <path d="M 11.52928 -3.51134 A 0.04688 0.01288 360 0 1 11.62303 -3.51134 L 11.62303 0.5029" />
    <path d="M 11.62303 -3.51134 A 0.04688 0.01288 360 0 1 11.53596 -3.50471" />
    <path d="M -11.61635 3.51797 A 0.04688 0.01288 180 0 0 -11.52928 3.51134" />
    <path d="M -11.62303 3.51134 A 0.04688 0.01288 180 0 0 -11.61635 3.51797" />
    <path d="M -9.47262 3.16448 A 0.04688 0.01288 180 0 0 -9.38555 3.15785" />
    <path d="M -9.4793 3.15785 A 0.04688 0.01288 180 0 0 -9.47262 3.16448" />
    <path d="M -7.32888 2.81099 A 0.04688 0.01288 180 0 0 -7.24181 2.80436" />
    <path d="M -7.33556 2.80436 A 0.04688 0.01288 180 0 0 -7.32888 2.81099" />
    <path d="M -5.18515 2.4575 A 0.04688 0.01288 180 0 0 -5.09808 2.45087" />
    <path d="M -5.19183 2.45087 A 0.04688 0.01288 180 0 0 -5.18515 2.4575" />
    <path d="M -1.32643 8.23117 A 0.04688 0.01288 180 0 0 -1.23936 8.22455" />
    <path d="M -1.33311 8.22455 A 0.04688 0.01288 180 0 0 -1.32643 8.23117" />
    <path d="M 0.8173 7.87768 A 0.04688 0.01288 180 0 0 0.90437 7.87106" />
    <path d="M 0.81062 7.87106 A 0.04688 0.01288 180 0 0 0.8173 7.87768" />
    <path d="M 2.96103 7.52419 A 0.04688 0.01288 180 0 0 3.0481 7.51757" />
    <path d="M 2.95435 7.51757 A 0.04688 0.01288 180 0 0 2.96103 7.52419" />
    <path d="M 5.10476 7.1707 A 0.04688 0.01288 180 0 0 5.19183 7.16408" />
    <path d="M 5.09808 7.16408 A 0.04688 0.01288 180 0 0 5.10476 7.1707" />
    <path d="M 7.24849 6.81721 A 0.04688 0.01288 180 0 0 7.33556 6.81058" />
    <path d="M 7.24181 6.81058 A 0.04688 0.01288 180 0 0 7.24849 6.81721" />
    <path d="M 9.39223 6.46372 A 0.04688 0.01288 180 0 0 9.4793 6.45709" />
    <path d="M 9.38555 6.45709 A 0.04688 0.01288 180 0 0 9.39223 6.46372" />
    <path d="M 11.53596 6.11023 A 0.04688 0.01288 180 0 0 11.62303 6.1036" />
    <path d="M 11.52928 6.1036 A 0.04688 0.01288 180 0 0 11.53596 6.11023" />
    <path d="M -11.62303 -0.82884 L -11.62303 3.51134" />
    <path d="M -11.52928 -0.7859 L -11.52928 3.51134" />
    <path d="M -9.4793 0.15308 L -9.4793 3.15785" />
    <path d="M -9.38555 0.19602 L -9.38555 3.15785" />
    <path d="M -7.33556 1.13499 L -7.33556 2.80436" />
    <path d="M -7.24181 1.17793 L -7.24181 2.80436" />
    <path d="M -5.19183 2.11691 L -5.19183 2.45087" />
    <path d="M -5.09808 2.15985 L -5.09808 2.45087" />
    <path d="M -1.33311 3.88436 L -1.33311 8.22455" />
    <path d="M -1.23936 3.92731 L -1.23936 8.22455" />
    <path d="M 0.81062 4.36132 L 0.81062 7.87106" />
    <path d="M 0.90437 4.34586 L 0.90437 7.87106" />
    <path d="M 2.95435 4.00783 L 2.95435 7.51757" />
    <path d="M 3.0481 3.99237 L 3.0481 7.51757" />
    <path d="M 5.09808 3.65434 L 5.09808 7.16408" />
    <path d="M 5.19183 3.63888 L 5.19183 7.16408" />
    <path d="M 7.24181 3.30085 L 7.24181 6.81058" />
    <path d="M 7.33556 3.28539 L 7.33556 6.81058" />
    <path d="M 9.38555 2.94736 L 9.38555 6.45709" />
    <path d="M 9.4793 2.9319 L 9.4793 6.45709" />
    <path d="M 11.52928 2.59387 L 11.52928 6.1036" />
    <path d="M 11.62303 2.57841 L 11.62303 6.1036" />
</svg>