<svg version="1.1" xmlns="http://www.w3.org/2000/svg" viewBox="-16.434873687037367 -5.190187409963533 32.86974737407472 11.238738677263356" fill="none" stroke="black" stroke-width="0.6%" vector-effect="non-scaling-stroke">
    <path d="M 9.22234 -0.82323 L 10.07125 -0.90506 L 10.07125 -2.59778 L 9.22234 -2.51595 L 9.22132 -2.54715 A 0.25 0.12695 84.49372 0 0 9.09371 -2.79714 L 4.206 -4.10596 A 0.25 0.12695 84.49372 0 0 4.18201 -4.10805 A 0.25 0.12695 84.49372 0 0 4.07763 -3.90907 L 4.07738 -3.89365 L 4.07738 -2.20093 L 0.47591 -3.16532 L 0.47591 -0.54975 L 12.82381 2.75673 L 12.82381 0.14116 L 13.67272 0.05933 L 10.07125 -0.90506" />
    <path d="M 9.22234 -0.82323 L 9.22234 -2.51595" />
    <path d="M 12.82381 0.14116 L 9.22234 -0.82323" />
    <path d="M 10.07024 -2.62898 L 9.22132 -2.54715" />
    <path d="M 10.07125 -2.59778 L 10.07024 -2.62898 A 0.25 0.12695 84.49372 0 0 9.94263 -2.87898 L 9.09371 -2.79714" />
    <path d="M 13.67272 2.6749 L 13.67272 0.05933" />
    <path d="M 4.07738 -2.51008 L 1.32483 -3.24715 L 0.47591 -3.16532" />
    <path d="M 5.05492 -4.18779 A 0.25 0.12695 84.49372 0 0 5.03093 -4.18989" />
    <path d="M 9.94263 -2.87898 L 5.05492 -4.18779 L 4.206 -4.10596" />
    <path d="M 13.67272 2.6749 L 12.82381 2.75673" />
    <path d="M -15.43487 0.42195 L 0 4.55505 L 15.43487 3.06713 L 13.67272 2.59527" />
    <path d="M 0.47591 -0.93853 L 0 -1.06597 L -15.43487 0.42195" />
    <path d="M -15.43487 0.91545 L -15.43487 0.42195" />
    <path d="M 0 5.04855 L 0 4.55505" />
    <path d="M -2.39562 4.40706 L 0 5.04855 L 15.43487 3.56063 L 15.43487 3.06713" />
    <path d="M -2.39562 4.40706 L -2.39562 4.4379 L -2.31093 4.42974" />
    <path d="M -2.39562 4.4379 L -2.37954 4.44221 L -2.29485 4.43404" />
    <path d="M -2.37954 4.73708 L -2.37954 4.44221" />
    <path d="M -2.76541 4.63375 L -2.37954 4.73708 L -1.48516 4.65086" />
    <path d="M -2.76541 4.63375 L -2.76541 4.34382 L -2.75191 4.34743 L -2.75191 4.31165" />
    <path d="M -12.68554 1.65166 L -2.75191 4.31165" />
    <path d="M -12.68554 1.65166 L -12.68554 1.6825 L -12.60084 1.67434" />
    <path d="M -12.68554 1.6825 L -12.66946 1.68681 L -12.58476 1.67864" />
    <path d="M -12.66946 1.98168 L -12.66946 1.68681" />
    <path d="M -13.05533 1.87835 L -12.66946 1.98168 L -11.77508 1.89546" />
    <path d="M -13.05533 1.87835 L -13.05533 1.58842 L -13.04182 1.59203 L -13.04182 1.55625" />
    <path d="M -15.43487 0.91545 L -13.04182 1.55625" />
    <path d="M -2.75191 4.34251 L -2.76541 4.34382" />
    <path d="M -13.04182 1.58711 L -13.05533 1.58842" />
    <path d="M -1.32643 4.81205 A 0.04688 0.00753 180 0 0 -1.23936 4.80817" />
    <path d="M -1.33311 4.80817 A 0.04688 0.00753 180 0 0 -1.32643 4.81205" />
    <path d="M -11.61635 2.05665 A 0.04688 0.00753 180 0 0 -11.52928 2.05277" />
    <path d="M -11.62303 2.05277 A 0.04688 0.00753 180 0 0 -11.61635 2.05665" />
    <path d="M 4.18201 -4.10805 L 5.03093 -4.18989" />
    <path d="M -1.33311 4.69157 L -1.33311 4.80817" />
    <path d="M -1.23936 4.71668 L -1.23936 4.80817" />
    <path d="M -11.62303 1.93617 L -11.62303 2.05277" />
    <path d="M -11.52928 1.96128 L -11.52928 2.05277" />
</svg>