<svg version="1.1" xmlns="http://www.w3.org/2000/svg" viewBox="-16.43487368703736 -5.095714991419399 32.86974737407472 11.480920729732322" fill="none" stroke="black" stroke-width="0.6%" vector-effect="non-scaling-stroke">
    <path d="M 9.22234 -0.64651 L 10.07125 -0.73323 L 10.07125 -2.42319 L 9.22234 -2.33647 L 9.22132 -2.36763 A 0.25 0.12675 84.16706 0 0 9.09371 -2.61932 L 4.206 -4.0063 A 0.25 0.12675 84.16706 0 0 4.1806 -4.00866 A 0.25 0.12675 84.16706 0 0 4.07763 -3.81185 L 4.07738 -3.79645 L 4.07738 -2.10649 L 0.47591 -3.12848 L 0.47591 -0.51717 L 12.82381 2.98679 L 12.82381 0.37548 L 13.67272 0.28876 L 10.07125 -0.73323" />
    <path d="M 9.22234 -0.64651 L 9.22234 -2.33647" />
    <path d="M 12.82381 0.37548 L 9.22234 -0.64651" />
    <path d="M 10.07024 -2.45435 L 9.22132 -2.36763" />
    <path d="M 10.07125 -2.42319 L 10.07024 -2.45435 A 0.25 0.12675 84.16706 0 0 9.94263 -2.70604 L 9.09371 -2.61932" />
    <path d="M 13.67272 2.90006 L 13.67272 0.28876" />
    <path d="M 4.07738 -2.43411 L 1.32483 -3.2152 L 0.47591 -3.12848" />
    <path d="M 5.05492 -4.09302 A 0.25 0.12675 84.16706 0 0 5.02951 -4.09538" />
    <path d="M 9.94263 -2.70604 L 5.05492 -4.09302 L 4.206 -4.0063" />
    <path d="M 13.67272 2.90006 L 12.82381 2.98679" />
    <path d="M 15.43487 3.31572 L 13.67272 2.81568" />
    <path d="M 0.47591 -0.92918 L 0 -1.06423 L -3.85872 -0.67004" />
    <path d="M 0 4.89251 L 15.43487 3.31572" />
    <path d="M 0 4.89251 L -0.25725 4.81951 L -0.25725 1.86331 L 1.02899 1.73191 L -3.85872 0.34493 L -3.85872 -1.34503 L -5.14496 -1.21363 L -5.14597 -1.2448 A 0.25 0.12675 84.16706 0 0 -5.27358 -1.49648 L -10.16129 -2.88347 A 0.25 0.12675 84.16706 0 0 -10.1867 -2.88582 L -8.90046 -3.01722" />
    <path d="M -0.25725 4.81951 L 1.02899 4.68811 L 1.02899 1.73191" />
    <path d="M -15.17762 0.58555 L -15.43487 0.51255" />
    <path d="M -15.17762 0.48627 L -15.43487 0.51255" />
    <path d="M 15.43487 3.80842 L 15.43487 3.31572" />
    <path d="M 0 5.3852 L 0 4.89251" />
    <path d="M 0 5.3852 L 15.43487 3.80842" />
    <path d="M -15.43487 1.00525 L -15.43487 0.51255" />
    <path d="M -15.17762 -2.37065 L -15.17762 0.58555" />
    <path d="M -10.28992 -0.98366 L -15.17762 -2.37065" />
    <path d="M -10.28992 -2.67362 L -10.28992 -0.98366" />
    <path d="M -10.28966 -2.68902 L -10.28992 -2.67362" />
    <path d="M -10.1867 -2.88582 A 0.25 0.12675 84.16706 0 0 -10.28966 -2.68902" />
    <path d="M -5.14496 0.47632 L -5.14496 -1.21363" />
    <path d="M -0.25725 1.86331 L -5.14496 0.47632 L -3.85872 0.34493" />
    <path d="M -2.39562 4.7054 L 0 5.3852" />
    <path d="M -2.39562 4.7054 L -2.39562 4.73619 L -2.31583 4.72804" />
    <path d="M -2.39562 4.73619 L -2.37954 4.74076 L -2.29975 4.7326" />
    <path d="M -2.37954 5.03514 L -2.37954 4.74076" />
    <path d="M -2.76541 4.92564 L -2.37954 5.03514 L -1.53694 4.94907" />
    <path d="M -2.76541 4.92564 L -2.76541 4.63618 L -2.75191 4.64002 L -2.75191 4.6043" />
    <path d="M -12.68554 1.78543 L -2.75191 4.6043" />
    <path d="M -12.68554 1.78543 L -12.68554 1.81622 L -12.60574 1.80807" />
    <path d="M -12.68554 1.81622 L -12.66946 1.82079 L -12.58967 1.81264" />
    <path d="M -12.66946 2.11517 L -12.66946 1.82079" />
    <path d="M -13.05533 2.00568 L -12.66946 2.11517 L -11.82686 2.0291" />
    <path d="M -13.05533 2.00568 L -13.05533 1.71622 L -13.04182 1.72005 L -13.04182 1.68433" />
    <path d="M -15.43487 1.00525 L -13.04182 1.68433" />
    <path d="M -3.85872 -1.34503 L -3.85973 -1.3762 L -5.14597 -1.2448" />
    <path d="M -3.85973 -1.3762 A 0.25 0.12675 84.16706 0 0 -3.98734 -1.62788 L -5.27358 -1.49648" />
    <path d="M -3.98734 -1.62788 L -8.87505 -3.01487 L -10.16129 -2.88347" />
    <path d="M -8.87505 -3.01487 A 0.25 0.12675 84.16706 0 0 -8.90046 -3.01722" />
    <path d="M -10.28992 -1.48005 L -13.89139 -2.50204 L -15.17762 -2.37065" />
    <path d="M -13.04182 1.71484 L -13.05533 1.71622" />
    <path d="M -2.75191 4.6348 L -2.76541 4.63618" />
    <path d="M -11.61635 2.17948 A 0.04688 0.00798 180 0 0 -11.52928 2.17538" />
    <path d="M -11.62303 2.17538 A 0.04688 0.00798 180 0 0 -11.61635 2.17948" />
    <path d="M -1.32643 5.09945 A 0.04688 0.00798 180 0 0 -1.23936 5.09535" />
    <path d="M -1.33311 5.09535 A 0.04688 0.00798 180 0 0 -1.32643 5.09945" />
    <path d="M 4.1806 -4.00866 L 5.02951 -4.09538" />
    <path d="M -11.62303 2.08694 L -11.62303 2.17538" />
    <path d="M -11.52928 2.11354 L -11.52928 2.17538" />
    <path d="M -1.33311 5.00691 L -1.33311 5.09535" />
    <path d="M -1.23936 5.03351 L -1.23936 5.09535" />
</svg>