<svg version="1.1" xmlns="http://www.w3.org/2000/svg" viewBox="-16.43487368703736 -5.462942343938302 32.86974737407472 11.848148082251225" fill="none" stroke="black" stroke-width="0.6%" vector-effect="non-scaling-stroke">
    <path d="M -15.43487 1.00525 L -15.43487 0.51255 L 0 4.89251 L 15.43487 3.31572 L 13.89139 2.87773 L 13.89139 -0.07847 L 10.28992 -1.10046 L 10.28992 -2.79042 L 9.441 -2.70369 L 9.43998 -2.73486 A 0.25 0.12675 84.16706 0 0 9.31237 -2.98654 L 4.42466 -4.37353 A 0.25 0.12675 84.16706 0 0 4.39926 -4.37588 L 5.24817 -4.46261" />
    <path d="M 0 5.3852 L 0 4.89251" />
    <path d="M -2.39562 4.7054 L 0 5.3852 L 15.43487 3.80842 L 15.43487 3.31572" />
    <path d="M -2.39562 4.7054 L -2.39562 4.73619 L -2.37954 4.74076 L -2.29975 4.7326" />
    <path d="M -2.37954 5.03514 L -2.37954 4.74076" />
    <path d="M -2.76541 4.92564 L -2.37954 5.03514 L -1.53694 4.94907" />
    <path d="M -2.76541 4.92564 L -2.76541 4.63618 L -2.75191 4.64002 L -2.75191 4.6043" />
    <path d="M -12.68554 1.78543 L -2.75191 4.6043" />
    <path d="M -12.68554 1.78543 L -12.68554 1.81622 L -12.66946 1.82079 L -12.58967 1.81264" />
    <path d="M -12.66946 2.11517 L -12.66946 1.82079" />
    <path d="M -13.05533 2.00568 L -12.66946 2.11517 L -11.82686 2.0291" />
    <path d="M -13.05533 2.00568 L -13.05533 1.71622 L -13.04182 1.72005 L -13.04182 1.68433" />
    <path d="M -15.43487 1.00525 L -13.04182 1.68433" />
    <path d="M 0 -1.06423 L -4.22315 -0.63281" />
    <path d="M -15.10474 0.47883 L -15.43487 0.51255" />
    <path d="M 0.69457 -0.86713 L 0 -1.06423" />
    <path d="M 0.69457 -0.53951 L 4.61331 0.57251" />
    <path d="M 7.51403 1.39565 L 13.04247 2.96445 L 13.04247 0.00825 L 13.89139 -0.07847" />
    <path d="M 13.04247 2.96445 L 13.89139 2.87773" />
    <path d="M -15.10474 0.57811 L -0.18436 4.81206 L -0.18436 1.85586 L 0.66456 1.76914 L -4.22315 0.38216 L -4.22315 -1.3078 L -5.07207 -1.22108 L -5.07308 -1.25224 A 0.25 0.12675 84.16706 0 0 -5.20069 -1.50393 L -10.0884 -2.89091 A 0.25 0.12675 84.16706 0 0 -10.11381 -2.89327 L -9.26489 -2.97999" />
    <path d="M -0.18436 4.81206 L 0.66456 4.72534 L 0.66456 1.76914" />
    <path d="M -2.39562 4.73619 L -2.31583 4.72804" />
    <path d="M -2.75191 4.6348 L -2.76541 4.63618" />
    <path d="M -12.68554 1.81622 L -12.60574 1.80807" />
    <path d="M -13.04182 1.71484 L -13.05533 1.71622" />
    <path d="M 10.28992 -2.79042 L 10.2889 -2.82158 L 9.43998 -2.73486" />
    <path d="M 10.2889 -2.82158 A 0.25 0.12675 84.16706 0 0 10.16129 -3.07327 L 9.31237 -2.98654" />
    <path d="M 10.16129 -3.07327 L 5.27358 -4.46025 L 4.42466 -4.37353" />
    <path d="M 5.27358 -4.46025 A 0.25 0.12675 84.16706 0 0 5.24817 -4.46261" />
    <path d="M 4.29604 -2.80134 L 1.54349 -3.58243 L 0.69457 -3.49571 L 0.69457 -0.53951" />
    <path d="M 9.441 -1.01374 L 9.441 -2.70369" />
    <path d="M 4.39926 -4.37588 A 0.25 0.12675 84.16706 0 0 4.29629 -4.17908 L 4.29604 -4.16368 L 4.29604 -2.47372 L 0.69457 -3.49571" />
    <path d="M 13.04247 0.00825 L 9.441 -1.01374 L 10.28992 -1.10046" />
    <path d="M -14.25582 -2.46481 L -15.10474 -2.37809 L -15.10474 0.57811" />
    <path d="M -5.07207 0.46888 L -5.07207 -1.22108" />
    <path d="M -10.11381 -2.89327 A 0.25 0.12675 84.16706 0 0 -10.21677 -2.69646 L -10.21703 -2.68106 L -10.21703 -0.99111 L -15.10474 -2.37809" />
    <path d="M -0.18436 1.85586 L -5.07207 0.46888 L -4.22315 0.38216" />
    <path d="M -4.22315 -1.3078 L -4.22417 -1.33897 L -5.07308 -1.25224" />
    <path d="M -4.22417 -1.33897 A 0.25 0.12675 84.16706 0 0 -4.35178 -1.59065 L -5.20069 -1.50393" />
    <path d="M -4.35178 -1.59065 L -9.23949 -2.97764 L -10.0884 -2.89091" />
    <path d="M -9.23949 -2.97764 A 0.25 0.12675 84.16706 0 0 -9.26489 -2.97999" />
    <path d="M -10.21703 -1.31873 L -14.25582 -2.46481" />
    <path d="M -1.32643 5.09945 A 0.04688 0.00798 180 0 0 -1.23936 5.09535" />
    <path d="M -1.33311 5.09535 A 0.04688 0.00798 180 0 0 -1.32643 5.09945" />
    <path d="M -11.61635 2.17948 A 0.04688 0.00798 180 0 0 -11.52928 2.17538" />
    <path d="M -11.62303 2.17538 A 0.04688 0.00798 180 0 0 -11.61635 2.17948" />
    <path d="M 5.89955 0.08063 L 7.18579 -0.05077 L 7.18579 -1.28252 L 6.54267 -1.46501 L 5.25643 -1.33362 L 5.25643 -0.10187 L 4.61331 -0.28437 L 4.61331 0.94738 L 6.54267 1.49488 L 7.82891 1.36348 L 7.82891 0.13173 L 7.18579 -0.05077" />
    <path d="M 5.89955 0.08063 L 5.89955 -1.15112 L 5.25643 -1.33362" />
    <path d="M 7.18579 -1.28252 L 5.89955 -1.15112" />
    <path d="M 6.54267 0.26313 L 7.82891 0.13173" />
    <path d="M 6.54267 0.26313 L 5.89955 0.08063" />
    <path d="M 6.54267 1.49488 L 6.54267 0.26313" />
    <path d="M 5.25643 -0.35006 L 4.61331 -0.28437" />
    <path d="M -1.33311 5.00691 L -1.33311 5.09535" />
    <path d="M -1.23936 5.03351 L -1.23936 5.09535" />
    <path d="M -11.62303 2.08694 L -11.62303 2.17538" />
    <path d="M -11.52928 2.11354 L -11.52928 2.17538" />
</svg>